<?xml version="1.0" encoding="utf-8"?>
<!-- Generator: Adobe Illustrator 24.1.2, SVG Export Plug-In . SVG Version: 6.00 Build 0)  -->
<svg version="1.1" id="Layer_1" xmlns="http://www.w3.org/2000/svg" xmlns:xlink="http://www.w3.org/1999/xlink" x="0px" y="0px"
	 viewBox="0 0 128 128" style="enable-background:new 0 0 128 128;" xml:space="preserve">
<style type="text/css">
	.st0{fill:#F74A01;}
</style>
<path class="st0" d="M63,0.2c-0.2,0.1-1.2,1.5-2.2,3.1c-2.4,3.9-2.4,3.9-5.7,0.5c-2.1-2.2-2.6-2.6-3.3-2.6c-0.4,0-1,0.2-1.2,0.3
	s-0.9,1.6-1.5,3.2c-1.3,3.6-1.4,3.7-2.2,3.9c-0.5,0.1-1.3-0.4-3.5-1.9c-1.6-1.1-3.1-2-3.4-2c-1.3,0-1.7,0.7-2.3,4.4
	c-0.8,4.7-0.8,4.7-5,2.8c-1.7-0.8-3.3-1.4-3.6-1.4c-0.3,0-0.8,0.3-1.1,0.7c-0.7,0.7-0.7,0.7-0.5,4.2l0.2,3.6l-0.7,0.4
	c-0.6,0.3-1,0.3-3.7-0.3c-3.5-0.8-4.2-0.8-4.9,0.1L18,19.8l0.7,3c0.4,1.6,0.7,3.2,0.8,3.5c0.1,0.3,0,0.7-0.3,1
	c-0.3,0.4-0.7,0.5-3.9,0.4c-5.5-0.1-5.8,0.4-3.5,5.3c0.7,1.6,1.3,3,1.3,3.2c0,0.9-0.7,1.2-3.8,1.7c-1.7,0.3-3.2,0.5-3.3,0.5
	c-0.1,0-0.4,0.2-0.7,0.5c-0.9,0.9-0.7,1.8,1.5,4.8c2.6,3.7,2.6,3.8-1.7,5.4c-5,1.9-5.1,2.4-1.3,6c3.5,3.3,3.5,3.3-0.5,5.8
	c-3,1.9-3.1,1.9-3.1,3C0,65.1,0,65.2,3.6,67.4c3.6,2.2,3.6,2.2,0.1,5.6C-0.1,76.5,0,77,5,78.9c4.3,1.6,4.4,1.7,1.7,5.4
	c-1.5,2.1-2,3-2,3.7c0,1.2,0.6,1.5,4.4,2.2c3.2,0.5,3.9,0.9,3.9,1.7c0,0.2-0.6,1.6-1.3,3.2c-2.2,4.9-2,5.3,3.3,5.3
	c4.9,0,4.8-0.2,3.7,4.3c-0.8,3.3-0.8,4-0.1,4.7c0.6,0.6,1.6,0.5,4.9-0.3c2.5-0.6,2.9-0.6,3.5-0.3l0.7,0.4l-0.2,3.6
	c-0.2,3.6-0.2,3.6,0.5,4.2c0.4,0.4,0.9,0.7,1.2,0.7c0.3,0,1.9-0.6,3.6-1.4c4.2-1.9,4.2-1.9,5,2.8c0.6,3.7,1,4.4,2.3,4.4
	c0.3,0,1.8-0.9,3.3-2c2.7-1.9,3.3-2.2,4-1.7c0.2,0.1,0.9,1.7,1.6,3.5c1,2.6,1.4,3.3,1.9,3.6c1.1,0.5,1.7,0.1,4.2-2.6
	c3-3.3,3.1-3.3,5.6,0.7c2.7,4.4,3.4,4.4,6.2-0.1c2.4-3.9,2.4-3.9,5.6-0.5c2.2,2.3,2.6,2.6,3.3,2.6c0.5,0,1-0.2,1.2-0.4
	c0.2-0.2,0.9-1.8,1.6-3.5c0.6-1.7,1.3-3.2,1.5-3.3c0.7-0.4,1.4-0.1,4,1.8c1.6,1.1,3,2,3.4,2c1.3,0,1.8-0.9,2.3-4.5
	c0.5-3.1,0.6-3.4,1.2-3.7c0.6-0.3,1-0.2,3.8,1.1c1.7,0.8,3.3,1.4,3.6,1.4c0.3,0,0.8-0.3,1.2-0.7l0.7-0.7l-0.2-3.4
	c-0.2-3.3-0.2-3.5,0.4-3.9c0.5-0.5,0.6-0.5,3.6,0.2c3.7,0.8,4.3,0.9,5,0.2c0.7-0.7,0.7-0.8-0.3-4.7c-1-4.3-1.2-4.2,3.8-4.2
	c3.4,0,3.8,0,4.2-0.5c0.7-0.8,0.5-1.7-0.9-4.8c-0.7-1.6-1.3-3-1.3-3.1c0-0.9,0.7-1.2,4.1-1.8c2-0.3,3.6-0.7,3.8-1
	c0.9-0.8,0.6-1.9-1.5-4.9c-2.6-3.7-2.6-3.7,1.6-5.3c5.1-1.9,5.2-2.5,1.4-6.1c-3.5-3.3-3.5-3.3,0.3-5.7c4.6-2.9,4.7-3.5,0.1-6.3
	c-3.9-2.4-3.9-2.4-0.4-5.8c3.8-3.6,3.7-4.1-1.3-6c-4.4-1.7-4.4-1.7-1.7-5.4c1.6-2.2,2-2.9,2-3.7c0-1.3-0.6-1.6-4.4-2.2
	c-3.2-0.5-3.9-0.8-3.9-1.8c0-0.2,0.6-1.6,1.3-3.1c1.4-3,1.6-4.2,0.8-4.9c-0.4-0.4-1-0.4-4.1-0.4c-3.2,0.1-3.6,0-4.1-0.4
	c-0.5-0.5-0.5-0.6,0.3-3.7c0.9-3.9,0.9-4,0.2-4.7c-0.8-0.7-1.3-0.7-4.8,0.1c-2.6,0.6-3,0.7-3.6,0.3l-0.7-0.4l0.2-3.6l0.2-3.6
	l-0.7-0.7c-0.4-0.4-0.9-0.7-1.2-0.7c-0.3,0-1.9,0.6-3.6,1.4c-2.8,1.3-3.1,1.4-3.8,1.1c-0.6-0.3-0.7-0.6-1.2-3.8
	c-0.6-3.7-1-4.4-2.3-4.4c-0.3,0-1.9,0.9-3.4,2.1c-2.6,1.9-2.9,2-3.6,1.8c-0.5-0.2-0.8-0.6-1.2-1.6c-0.3-0.7-0.8-2.2-1.2-3.2
	c-0.8-2-1.2-2.5-2.3-2.5c-0.6,0-1.2,0.5-3.3,2.6c-3.3,3.4-3.3,3.4-5.7-0.5c-1-1.6-2-3-2.2-3.1C64.2-0.1,63.5-0.1,63,0.2 M65.9,12
	c2.8,2,1.3,6.8-2.1,6.8c-3.4,0-5.1-4.1-2.7-6.4C62.5,11.1,64.4,11,65.9,12 M62.4,24.5c1.9,0.7,2.6,0.3,6.9-3.8l3.2-3.1l1.3,0.2
	c4.2,0.6,12.6,4.3,17.5,7.7c4.4,3.1,10.3,9.5,12.8,13.9l0.5,0.9l-2.4,5.4c-1.3,3-2.4,5.7-2.4,6.1c0,0.9,0.6,2.3,1.1,2.7
	c0.2,0.2,2.5,1.3,4.9,2.4l4.5,2l0.2,1.1c0.2,1.5,0.3,5.2,0.1,6.2l-0.2,0.8h-2.6c-3,0-2.8-0.3-2.9,3.4c-0.1,2.7-0.8,4.1-2.2,5.1
	c-2.4,1.6-6.3,1.3-8-0.6c-0.3-0.3-0.8-1.7-1.1-3.2c-1-4.3-2.4-6.6-5.2-9c-0.9-0.7-1.6-1.4-1.6-1.5c0-0.1,1-0.9,2.1-1.8
	c4.3-3.2,6.8-7,7-10.7c0.5-7.1-5.2-13.8-13.6-15.9c-2-0.5-2.9-0.5-27.6-0.5c-14.1,0-25.6-0.1-25.6-0.2c0-0.3,3.1-3.3,5-4.8
	c5.1-4.2,11.6-7.5,18.4-9.2l2.3-0.6l3.3,3.4C60.2,22.8,62,24.4,62.4,24.5 M20.3,46.3c1.5,1,2.2,3.5,1.3,5.1c-1.4,2.4-5,2.5-6.4,0.2
	C13.1,48.3,17.1,44.2,20.3,46.3 M111,46.5c4,2.5,0.9,8.5-3.4,6.6c-2.9-1.3-3-5.2-0.2-6.6C108.6,45.8,109.9,45.8,111,46.5 M32.2,61.5
	v15H18.9l-0.5-2.3c-1-4.5-1.5-9.2-1.2-13l0.2-2.7l4.6-2c2.9-1.3,4.7-2.3,4.9-2.6c1-1.6,0.9-2.7-0.5-5.9l-0.7-1.5h6.5L32.2,61.5
	 M70.4,47.1c2.8,0.7,4.3,2.2,4.3,4.4c0,1.5-0.8,2.5-2.7,3.4c-1.3,0.6-1.6,0.6-10.1,0.7l-8.7,0.1v-8.9h7.8
	C67.2,46.7,69.2,46.8,70.4,47.1 M67.5,68.7c1.4,0.4,3.1,1.6,3.9,2.9c0.9,1.3,1.4,3.1,2.7,8.8c1.1,4.9,1.7,6.5,3.6,8.5
	c2.3,2.6,1.8,2.5,13.5,2.5c5.6,0,10.2,0.1,10.2,0.2c0,0.2-3.9,4.8-4,4.8c0,0-2.1-0.4-4.5-0.9c-6.8-1.5-7.1-1.3-8.6,6l-1,4.7
	l-0.9,0.4c-1.5,0.8-6.5,2.3-9,2.8c-4.2,0.9-8.8,1.2-12.9,0.8c-6.9-0.6-16-3.3-16.4-4.8c-0.1-0.3-0.5-2.4-1-4.7
	c-0.5-2.3-1.1-4.4-1.3-4.8c-1.1-1.7-2.3-1.8-7.5-0.7c-2,0.4-3.7,0.8-3.8,0.8c-0.2,0-3.9-4.2-3.9-4.5c0-0.1,8.7-0.2,19.4-0.2
	l19.4-0.1l0.1-6.9c0.1-4.9,0-7-0.2-7.3c-0.2-0.3-1.5-0.4-6-0.4h-5.7v-8.4l6.6,0C63.5,68.4,66.9,68.5,67.5,68.7 M37.6,100
	c3.1,1.9,1.6,6.8-2,6.8c-3.7,0-5.1-4.9-1.9-6.8C34.6,99.4,36.5,99.4,37.6,100 M94.1,100.2c1.5,1.1,2,3.4,1.1,4.9
	c-2.5,4-8.6,0.8-6.6-3.4C89.6,99.7,92.3,98.9,94.1,100.2"/>
</svg>
